<?xml version="1.0" encoding="utf-8"?>
<!-- Generator: Adobe Illustrator 16.0.0, SVG Export Plug-In . SVG Version: 6.00 Build 0)  -->
<!DOCTYPE svg PUBLIC "-//W3C//DTD SVG 1.1//EN" "http://www.w3.org/Graphics/SVG/1.1/DTD/svg11.dtd">
<svg version="1.1" id="Layer_1" xmlns="http://www.w3.org/2000/svg" xmlns:xlink="http://www.w3.org/1999/xlink" x="0px" y="0px"
	 width="550px" height="503.5px" viewBox="0 0 550 503.5" enable-background="new 0 0 550 503.5" xml:space="preserve">
<path fill="#9FC03B" d="M302.51,64.131l-30.294-8.067l-24.177,19.71l6.826,31.943l30.018,7.842l24.456-19.477L302.51,64.131z
	 M272.712,73.11l11.765-9.759l12.256,3.264l-18.914,15.777l-8.906-2.536l7.224-5.915L272.712,73.11z M273.134,60.331l10.429,2.777
	l-11.785,9.775l-2.462-0.597l-7.216,5.632l-7.814-2.225L273.134,60.331z M258.164,104.565l-5.398-25.262l7.537,2.145l1.743,8.154
	l6.829,1.886l-1.729-8.093l9.475,2.696l5.272,24.673L258.164,104.565z M285.692,109.95l-5.271-24.667l19.21-16.025l5.403,25.287
	L285.692,109.95z"/>
<path fill="#9FC03B" d="M75.782,31.201l15.978,2.583l11.554-11.157L98.287,6.483L82.376,3.725l-11.62,11.327L75.782,31.201z
	 M85.144,12.785l4.76,0.835l-3.375,3.404l-12.537-2.319l4.703-4.583l7.783,1.418L85.144,12.785z M95.447,8.033l-2.96,2.986
	l-4.685-0.709l-0.959,0.894l-7.798-1.419l4.002-3.9L95.447,8.033z M91.89,30.861l-3.882-12.47L91.6,14.77l1.273,4.09l2.602-2.583
	l-1.283-4.121l2.856-2.881l3.976,12.769L91.89,30.861z M77.333,29.416l-3.98-12.782l12.735,2.356l3.881,12.468L77.333,29.416z"/>
<path fill="#699524" d="M42.442,352.787l-22.855-3.917L3.094,365.007l7.164,23.077l22.637,3.767l16.715-15.98L42.442,352.787z
	 M21.09,361.396l8.015-7.977l9.247,1.583l-12.878,12.89l-6.731-1.276l4.926-4.838L21.09,361.396z M20.548,351.954l7.868,1.348
	l-8.028,7.988l-1.854-0.275l-4.939,4.629l-5.904-1.115L20.548,351.954z M12.477,385.538L6.812,367.29l5.696,1.076l1.828,5.891
	l5.156,0.932l-1.816-5.846l7.162,1.354l5.532,17.821L12.477,385.538z M33.116,387.665l-5.532-17.818l13.08-13.091l5.671,18.268
	L33.116,387.665z"/>
<path fill="#FF9900" d="M15.781,315.832l23.997,19.892l30.074-7.229l7.428-31.706l-23.712-20.119l-30.353,7.449L15.781,315.832z
	 M49.311,294.411l7.084,6.033l-8.927,2.357l-18.545-16.099l12.281-3.012l11.535,9.958L49.311,294.411z M71.052,296.584l-7.832,2.063
	l-7.082-5.754l-2.466,0.548l-11.555-9.974l10.448-2.563L71.052,296.584z M42.852,330.999l5.736-24.486l9.5-2.502l-1.882,8.031
	l6.843-1.745l1.895-8.096l7.556-1.989l-5.874,25.074L42.852,330.999z M20.102,314.382l5.88-25.101l18.836,16.349l-5.737,24.483
	L20.102,314.382z"/>
<path fill="#FF9900" d="M71.909,105.241l-41.483,1.044L7.062,140.328l20.575,38.029l41.049-1.226l23.803-33.853L71.909,105.241z
	 M37.407,127.75l11.306-16.78l16.785-0.421l-18.145,27.087l-12.258,0.099l6.971-10.204L37.407,127.75z M33.182,111.361l14.281-0.36
	l-11.325,16.808l-3.35,0.157l-7.066,9.843l-10.753,0.086L33.182,111.361z M30.652,173.122L14.38,143.047l10.373-0.083l5.252,9.707
	l9.375-0.148l-5.213-9.636l13.04-0.106l15.891,29.373L30.652,173.122z M67.622,169.702l-15.886-29.365l18.427-27.513l16.287,30.103
	L67.622,169.702z"/>
<path fill="#3BA7BF" d="M179.219,52.366l-20.581,38.041l23.805,33.851l41.049,1.227l20.574-38.03l-23.363-34.043L179.219,52.366z
	 M203.918,89.905l13.04,0.106l-5.213,9.636l9.376,0.149l5.253-9.708l10.374,0.083l-16.271,30.075l-32.448-0.969L203.918,89.905z
	 M203.775,84.76l-18.144-27.087l32.315,0.813l18.212,26.537l-10.753-0.086l-7.066-9.842l-9.278-0.438l6.971,10.205L203.775,84.76z
	 M180.964,59.948l18.427,27.513l-15.887,29.366l-18.827-26.775L180.964,59.948z"/>
<path fill="#009FE8" d="M111.602,134.416l26.061,9.26l19.046-18.372l-3.265-26.058l-26.053-9.257l-19.212,18.111L111.602,134.416z
	 M132.891,115.115l-1.217-8.25l6.602,2.345l-0.828-5.939l-6.651-2.364l-0.968-6.562l20.604,7.322l2.58,20.598L132.891,115.115z
	 M129.653,115.713l-15.329,14.129l-2.667-20.499l14.974-14.118l1.003,6.802l-5.523,5.434l0.637,5.905l5.761-5.409L129.653,115.713z
	 M116.221,132.566l15.571-14.351l20.118,7.148l-15.066,14.531L116.221,132.566z"/>
<g>
	<polygon fill="#FFFFFF" points="330.145,184.163 348.38,306.224 332.75,329.316 134.844,362.233 141.471,420.567 165.725,443.177 
		498.549,392.947 528.641,358.227 510.563,261.844 419.031,167.333 	"/>
	<path fill="#227BBB" d="M281.474,424.443c3.34,20.195-10.276,39.285-30.476,42.643c-20.194,3.36-39.284-10.289-42.644-30.481
		c-3.357-20.193,10.292-39.286,30.484-42.644C259.03,390.601,278.125,404.25,281.474,424.443z"/>
	<circle fill="#227BBB" cx="431.658" cy="399.463" r="37.065"/>
	<polygon fill="#227BBB" points="343.777,315.527 93.356,357.179 59.069,150.915 309.494,109.263 	"/>
	<polygon fill="#227BBB" points="382.163,212.146 397.749,305.954 462.565,295.175 457.715,266.024 405.182,205.757 	"/>
	<g id="truck_1_">
		<path fill="#333332" d="M411.975,202.406c-3.335-3.552-8.227-5.207-13.034-4.408l-14.384,2.392
			c-7.955,1.323-13.318,8.82-11.995,16.778l14.354,86.39c1.322,7.952,8.827,13.314,16.778,11.992l57.547-9.568
			c7.95-1.322,13.313-8.824,11.994-16.777l-3.588-21.565c-0.472-2.831-1.777-5.489-3.744-7.598L411.975,202.406z M458.843,291.597
			l-57.544,9.567l-14.352-86.386l14.384-2.392l53.923,57.649L458.843,291.597z"/>
		<path fill="#333332" d="M517.151,242.457l-71.896-76.761c-10.04-10.704-24.663-15.649-39.105-13.248l-64.995,10.807l-6.461-38.853
			c-3.956-23.792-26.536-39.939-50.297-35.981L76.074,123.065c-23.791,3.957-39.938,26.544-35.982,50.334l27.991,168.4
			c3.958,23.8,26.543,39.939,50.336,35.984l0,0l7.176,43.16c3.957,23.797,26.542,39.937,50.335,35.981l16.432-2.732
			c10.544,23.684,35.949,38.374,62.691,33.926c26.704-4.439,45.939-26.561,48.251-52.386l75.997-12.636
			c10.537,23.686,35.95,38.372,62.685,33.929c26.709-4.44,46.001-26.561,48.306-52.384l16.463-2.739
			c23.799-3.959,39.938-26.537,35.983-50.333l-14.354-86.307C526.962,256.692,523.082,248.783,517.151,242.457z M113.633,349.011
			c-7.938,1.319-15.456-4.042-16.777-11.994L68.865,168.616c-1.324-7.959,4.056-15.459,11.995-16.779l208.3-34.645
			c7.935-1.323,15.438,4.035,16.763,11.995l6.461,38.853l4.784,28.773l16.746,100.773c1.321,7.953-4.042,15.458-11.995,16.78
			L113.633,349.011z M250.268,459.346c-15.897,2.644-30.917-8.114-33.557-23.988c-2.641-15.874,8.092-30.912,23.988-33.558
			c15.882-2.639,30.924,8.112,33.564,23.99C276.902,441.664,266.139,456.706,250.268,459.346z M437.215,428.248
			c-15.901,2.646-30.916-8.112-33.557-23.986s8.086-30.912,23.985-33.558c15.878-2.641,30.921,8.112,33.561,23.988
			C463.842,410.566,453.094,425.609,437.215,428.248z M513.962,356.351c1.324,7.953-4.043,15.457-11.993,16.778l-16.438,2.735
			c-10.552-23.685-35.949-38.374-62.67-33.93c-26.749,4.445-46.027,26.563-48.346,52.39l-75.983,12.632
			c-10.521-23.683-35.89-38.372-62.604-33.931c-26.744,4.447-46.027,26.566-48.338,52.39l-16.444,2.735
			c-7.937,1.317-15.456-4.042-16.778-11.993l-7.176-43.16l179.511-29.859c23.799-3.957,39.938-26.535,35.984-50.335l-16.748-100.775
			l64.994-10.807c4.805-0.799,9.701,0.855,13.034,4.41l71.897,76.833c1.969,2.108,3.272,4.746,3.746,7.585L513.962,356.351z"/>
	</g>
	<g>
		<path fill="#FFFFFF" d="M154.49,242.864c0.194,1.171-2.393,3.854-7.759,8.05l3.624,21.868c0.323,1.949-0.734,3.128-3.172,3.532
			c-2.585,0.428-4.034-0.31-4.349-2.211l-2.994-18.065c-4.571,3.865-7.221,5.856-7.952,5.978c-1.073,0.178-2.093-0.229-3.058-1.222
			c-0.974-1.042-1.558-2.146-1.752-3.316c-0.202-1.219,0.811-2.663,3.039-4.337c2.236-1.622,5.009-3.635,8.318-6.037l-3.054-18.431
			l-3.438,0.57c0.039,2.047-0.021,4.412-0.177,7.093c-0.108,2.674-1.016,4.15-2.722,4.434c-2.975,0.493-4.644-0.358-5.007-2.552
			c-0.041-0.244-0.056-0.49-0.048-0.744c0.283-7.061-0.21-14.418-1.479-22.074c-0.283-1.706,0.867-2.773,3.452-3.202
			c2.389-0.396,3.746,0.383,4.069,2.331c0.024,0.146,0.113,0.685,0.267,1.609c0.468,2.528,0.817,4.474,1.043,5.839l2.853-0.473
			l-2.048-12.36c-0.34-2.049,0.831-3.293,3.513-3.738c2.34-0.388,3.68,0.44,4.02,2.489l2.048,12.36l2.999-0.497
			c2.34-0.388,3.717,0.662,4.129,3.148c0.38,2.293-0.576,3.628-2.868,4.008l-3.072,0.509l2.448,14.774
			c2.609-2.087,4.159-3.17,4.647-3.251c1.023-0.169,2.014,0.219,2.972,1.161C153.899,241.109,154.401,242.028,154.49,242.864z
			 M190.959,213.977c2.247,13.555,3.58,24.932,4.003,34.13c0.471,9.189,0.01,14.876-1.38,17.062
			c-1.392,2.185-3.769,3.556-7.134,4.113c-0.099,0.017-0.172,0.028-0.219,0.036c-8.899,1.324-13.586,0.547-14.063-2.329
			c-0.526-3.17,0.43-4.956,2.869-5.359c0.244-0.041,0.495-0.033,0.756,0.024c3.534,0.466,6.179,0.554,7.934,0.263
			c4.681-0.775,4.759-14.815,0.234-42.122c-0.153-0.925-0.271-1.633-0.352-2.12c-0.194-1.171-0.975-1.643-2.339-1.417l-0.219,0.036
			c0.854,7.875,0.537,15.644-0.948,23.303c-1.494,7.613-4.211,14.8-8.149,21.565c-3.988,6.772-6.786,10.293-8.395,10.56
			c-1.17,0.193-2.374-0.107-3.607-0.905c-1.177-0.757-1.859-1.696-2.044-2.817c-0.154-0.927,0.119-1.849,0.819-2.767
			c11.812-15.183,16.742-31.079,14.791-47.689l-2.852,0.473c0.292,9.32-1.524,18.465-5.449,27.43
			c-3.876,8.959-7.204,13.667-9.982,14.128c-1.123,0.187-2.275-0.123-3.461-0.929c-1.129-0.764-1.782-1.683-1.96-2.756
			c-0.162-0.975,0.168-2.007,0.99-3.096c8.517-10.579,12.605-21.727,12.268-33.445l-3.072,0.509
			c-0.353,3.315-1.282,7.077-2.789,11.284c-1.459,4.199-2.871,6.413-4.235,6.639c-1.024,0.169-2.162-0.042-3.412-0.638
			c-1.292-0.538-2.03-1.366-2.216-2.487c-0.129-0.779,0.074-1.667,0.612-2.658c3.843-8.552,5.557-17.552,5.144-27.003
			c-0.064-1.591,0.977-2.566,3.123-2.922c2.925-0.485,4.538,0.176,4.836,1.979c0.178,1.073,0.159,3.681-0.056,7.825l21.942-3.636
			c4.827-0.8,7.612,1.042,8.356,5.529C191.317,213.867,191.202,213.936,190.959,213.977z"/>
		<path fill="#FFFFFF" d="M216.145,207.697c0.162,0.977-0.152,1.955-0.941,2.937c-0.831,1.04-1.732,1.64-2.708,1.801
			c-0.927,0.153-3.488-1.55-7.686-5.113c-1.055-0.927-2.566-2.03-4.531-3.308c-1.657-1.229-2.553-2.257-2.69-3.086
			c-0.161-0.975,0.124-1.974,0.856-2.998c0.724-1.071,1.574-1.688,2.549-1.85c1.023-0.169,3.74,1.41,8.149,4.737
			C213.552,204.144,215.886,206.439,216.145,207.697z M218.299,225.226c0.493,2.976-0.602,4.685-3.284,5.129
			c-0.634,0.105-2.039-0.514-4.215-1.856c-2.501-1.49-5.4-3.113-8.698-4.872c-1.982-1.074-3.041-2.024-3.179-2.854
			c-0.161-0.975,0.067-2.014,0.686-3.12c0.659-1.162,1.329-1.798,2.013-1.911c0.731-0.121,3.614,1.104,8.65,3.676
			c0.219,0.114,0.381,0.188,0.488,0.22C215.526,222.104,218.039,223.967,218.299,225.226z M210.657,264.817
			c-0.927,0.153-2.052-0.136-3.375-0.867c-1.284-0.791-2.013-1.723-2.191-2.795c-0.097-0.584-0.017-1.15,0.245-1.693
			c3.599-8.211,6.401-15.789,8.406-22.735c0.644-2.161,1.453-3.322,2.429-3.484c1.023-0.169,2.178-0.01,3.46,0.479
			c1.234,0.498,1.941,1.283,2.119,2.354c0.186,1.122-1.143,6.102-3.987,14.939C214.918,259.853,212.55,264.453,210.657,264.817z
			 M270.456,220.265c0.444,2.683-0.821,4.269-3.795,4.762c-1.365,0.226-2.437-0.197-3.217-1.271
			c-0.771-1.023-1.644-2.057-2.617-3.098l-2.365,0.693l4.158,25.087c0.226,1.364,0.972,1.943,2.241,1.733
			c1.17-0.194,1.562-1.461,1.173-3.802l-0.994-5.997c-0.315-1.901,0.794-3.063,3.33-3.483c2.438-0.404,3.811,0.321,4.118,2.173
			l1.648,9.946c0.792,4.778-1.055,7.539-5.541,8.283l-5.12,0.849c-4.534,0.751-7.149-0.971-7.844-5.163l-4.582-27.646
			c-2.023,0.486-3.832,0.911-5.424,1.275l5.26,31.742c0.299,1.803-0.82,2.916-3.355,3.336c-2.438,0.404-3.806-0.297-4.105-2.1
			l-5.176-31.23l-4.425,0.959l0.945,5.704c1.196,7.217,0.267,14.009-2.785,20.376c-3.061,6.317-5.713,9.664-7.956,10.035
			c-1.073,0.178-2.149-0.12-3.229-0.893c-1.138-0.813-1.782-1.684-1.935-2.609c-0.162-0.976,0.216-2.016,1.136-3.119
			c6.117-7.526,8.558-15.02,7.321-22.48l-0.909-5.485c-0.626,0.154-1.281,0.288-1.962,0.4c-0.684,0.113-1.273,0.186-1.768,0.218
			c-1.958,0.275-3.16-0.929-3.604-3.611c-0.016-0.098-0.032-0.193-0.048-0.292c-0.323-2.551,0.637-4.014,2.88-4.385l4.022-0.667
			c2.832-5.879,4.865-11.301,6.096-16.266l-12.58,2.085c-1.951,0.323-3.144-0.832-3.58-3.465c-0.388-2.341,0.417-3.675,2.417-4.007
			l14.555-2.412l-0.643-3.877c-0.347-2.096,0.795-3.362,3.429-3.799c2.729-0.452,4.265,0.344,4.604,2.393l0.654,3.95l20.26-3.357
			c1.999-0.332,3.193,0.672,3.581,3.013c0.436,2.633-0.346,4.115-2.345,4.446l-22.38,3.709c-0.801,5.143-2.541,10.517-5.219,16.12
			c4.388-0.727,11.405-2.215,21.053-4.466c-0.917-1-2.469-2.496-4.652-4.489c-2.111-1.854-3.215-3.074-3.312-3.659
			c-0.169-1.024,0.144-2.002,0.942-2.937c0.845-0.94,1.755-1.494,2.731-1.656c1.56-0.258,5.015,2.302,10.366,7.677
			C267.267,214.931,270.115,218.518,270.456,220.265z"/>
	</g>
	
		<rect x="199.587" y="208.824" transform="matrix(0.1663 0.9861 -0.9861 0.1663 451.1888 33.2217)" fill="#FFFFFF" width="12.721" height="149.215"/>
	
		<rect x="181.046" y="106.891" transform="matrix(0.1663 0.9861 -0.9861 0.1663 335.2167 -33.4783)" fill="#FFFFFF" width="12.721" height="149.216"/>
</g>
<polygon fill="#FF9900" points="431.299,82.621 446.652,148.632 471.526,89.764 "/>
<polygon fill="#FF9900" points="504.73,102.061 465.032,156.99 525.761,137.088 "/>
<path fill="#E73828" d="M95.883,49.493l-28.702,4.383l-9.62,28.844l20.369,20.473l28.815-4.065l9.622-28.852L95.883,49.493z
	 M77.798,97.932l-16.1-16.182l7.606-22.811l5.031,5.281l-2.455,7.364l4.584,4.738l2.439-7.308l6.324,6.641L77.798,97.932z
	 M81.993,67.012l8.588-1.33l-4.686-4.549l-8.448,1.108l-5.215-5.477l22.374-3.417l15.956,16.19l-22.623,3.716L81.993,67.012z
	 M104.022,95.859l-22.792,3.215l7.429-22.271l22.979-3.776L104.022,95.859z"/>
<path fill="#E51373" d="M94.273,386.296l-41.484,1.043l-23.362,34.045l20.575,38.028l41.05-1.226l23.803-33.852L94.273,386.296z
	 M59.771,408.804l11.307-16.78l16.784-0.422l-18.143,27.088l-12.259,0.098l6.971-10.203L59.771,408.804z M55.546,392.415
	l14.282-0.359l-11.325,16.809l-3.35,0.156l-7.066,9.843l-10.754,0.087L55.546,392.415z M53.016,454.176l-16.271-30.075l10.373-0.084
	l5.253,9.708l9.375-0.148l-5.213-9.637l13.042-0.105l15.89,29.373L53.016,454.176z M89.987,450.757l-15.887-29.365l18.427-27.513
	l16.287,30.103L89.987,450.757z"/>
<path fill="#7ED0F4" d="M156.198,23.795l-21.56-5.74l-17.206,14.027l4.858,22.734l21.363,5.581l17.404-13.861L156.198,23.795z
	 M134.992,30.186l8.373-6.946l8.723,2.324l-13.461,11.228l-6.339-1.805l5.141-4.208L134.992,30.186z M135.293,21.091l7.422,1.975
	l-8.386,6.957l-1.752-0.425l-5.135,4.008l-5.56-1.583L135.293,21.091z M124.639,52.571l-3.842-17.979l5.364,1.527l1.24,5.803
	l4.86,1.342l-1.231-5.759l6.744,1.919l3.752,17.558L124.639,52.571z M144.229,56.403l-3.751-17.556l13.672-11.404l3.846,17.997
	L144.229,56.403z"/>
<path fill="#284466" d="M54.742,35.092L39.167,19.117l-21.963,3.232L9.73,44.362l15.488,15.737l22.047-2.988L54.742,35.092z
	 M33.256,29.715l10.749-1.677l6.3,6.463l-17.31,2.75l-4.52-4.797l6.572-0.981L33.256,29.715z M38.173,22.059l5.361,5.5
	l-10.766,1.679l-1.287-1.263l-6.463,0.811l-3.965-4.208L38.173,22.059z M12.896,43.636l5.912-17.408l3.824,4.059l-1.908,5.62
	l3.485,3.642l1.893-5.577l4.81,5.102L25.14,56.076L12.896,43.636z M27.759,56.963l5.771-16.998l17.583-2.791l-5.916,17.426
	L27.759,56.963z"/>
</svg>
